# ProBuilder 5.2.4
# https://unity3d.com/unity/features/worldbuilding/probuilder
# 4/13/2025 10:42:34 AM

mtllib ./SM_Rocks_06.mtl
o SM_Rocks_06

g SM_Rocks_03
v -0.2844302 0.02112404 0.1814283
v -0.2683022 -0.02833435 0.1683852
v -0.2867658 -0.02840393 0.009735827
v -0.3043846 0.02104884 0.009969171
v -0.2711623 -0.02836596 -0.2098048
v -0.2877392 0.02108934 -0.2242319
v -0.2675956 0.2070944 -0.2159192
v -0.2753744 0.2108332 0.00949538
v -0.2162772 0.4561295 -0.1892773
v -0.2629109 0.2063871 0.1964161
v -0.2464028 0.02112763 0.2199109
v -0.226029 0.2061307 0.2321519
v -0.2178675 0.4570439 0.009341658
v -0.2037639 0.4454087 0.1656554
v -0.1654391 0.4460447 0.2026431
v -0.1494997 0.5659655 0.1489797
v -0.1108419 0.5681629 0.1864682
v -0.1617639 0.5727262 0.009122869
v -0.1609264 0.5652162 -0.1633714
v -0.09047629 0.6665656 0.140707
v -0.04968058 0.6793691 0.1723914
v -0.09333581 0.6568399 0.01569368
v -0.0903213 0.6444466 -0.1552621
v 0.03763043 0.7016995 0.1696578
v 0.03086501 0.5831835 0.2043732
v 0.1483387 0.6324214 0.1173817
v 0.1159821 0.7107839 0.09441938
v 0.1760603 0.5468181 0.1383581
v 0.01647979 0.4619753 0.2229828
v 0.2196032 0.4471691 0.1796057
v 0.2281017 0.206445 0.2159064
v -0.005384088 0.20949 0.2496911
v 0.2301049 0.02108047 0.242506
v -0.02554523 0.02105752 0.2557319
v -0.02538111 -0.02839579 0.2401144
v 0.2142659 -0.02837428 0.2277164
v -0.2302982 -0.02833074 0.2068788
v 0.04825991 0.6964689 0.009021261
v 0.2103375 0.6918139 0.01039597
v 0.2091849 0.6842858 -0.1542702
v 0.05033344 0.6826183 -0.1507656
v 0.2287507 0.5775265 -0.1721248
v 0.03312492 0.5801219 -0.1869702
v 0.2531176 0.457965 -0.182767
v 0.01739854 0.4603704 -0.201969
v -0.006570637 0.2107324 -0.2299456
v 0.2517681 0.2066958 -0.2067539
v -0.02689013 0.02103022 -0.255258
v 0.24103 0.02109623 -0.2021351
v 0.2245072 -0.0283595 -0.1890912
v -0.02664182 -0.02842138 -0.2388888
v 0.2436364 0.5743824 0.003839377
v 0.2690178 0.4614866 0.01009061
v 0.2710575 0.2104674 0.008125304
v 0.2706352 0.02102771 0.008984865
v 0.2522592 -0.02842373 0.008813136

vt 0.693784 0.2004773
vt 0.6970882 0.2131424
vt 0.742115 0.2150829
vt 0.7424463 0.2025744
vt 0.8041944 0.2150829
vt 0.8086713 0.2025744
vt 0.8073297 0.149932
vt 0.743566 0.1483595
vt 0.8010049 0.07781239
vt 0.6905401 0.1479201
vt 0.6826746 0.1978514
vt 0.6802133 0.1454524
vt 0.7447772 0.07674465
vt 0.7003654 0.0783242
vt 0.6896816 0.07551164
vt 0.7055133 0.04165484
vt 0.6946952 0.03838787
vt 0.7452253 0.04122547
vt 0.7940197 0.04404028
vt 0.7081345 0.01014532
vt 0.6990122 0.003841987
vt 0.7434911 0.01358978
vt 0.7918081 0.01760439
vt 0.7394152 0.5669149
vt 0.7219943 0.5352994
vt 0.6972418 0.5290083
vt 0.6992869 0.5630208
vt 0.754987 0.6016519
vt 0.6658552 0.5479629
vt 0.6749361 0.5254464
vt 0.6580893 0.5724971
vt 0.7034701 0.5975644
vt 0.6458793 0.6013001
vt 0.6436857 0.6699237
vt 0.7098724 0.6693591
vt 0.772355 0.6698998
vt 0.643281 0.7227435
vt 0.7157202 0.7227435
vt 0.7782354 0.7220585
vt 0.7156858 0.7365179
vt 0.6477812 0.736518
vt 0.773689 0.7358824
vt 0.7889547 0.721494
vt 0.7844016 0.7353177
vt 0.8320482 0.8936619
vt 0.8067024 0.893072
vt 0.7947403 0.9021559
vt 0.7934573 0.93766
vt 0.8346859 0.9391647
vt 0.8543178 0.9149994
vt 0.8800348 0.9395717
vt 0.8792745 0.9862186
vt 0.8346022 0.9846034
vt 0.7936811 0.9862186
vt 0.3550878 0.6333631
vt 0.3493504 0.6029139
vt 0.3043644 0.6036546
vt 0.2996343 0.6332828
vt 0.2645954 0.6148148
vt 0.2447516 0.6375016
vt 0.3622296 0.6673011
vt 0.2954096 0.6674307
vt 0.2292546 0.668899
vt 0.2152064 0.7398748
vt 0.2891069 0.738543
vt 0.3623468 0.7387607
vt 0.2098913 0.7926543
vt 0.283712 0.7926543
vt 0.3597242 0.7911887
vt 0.355182 0.8049883
vt 0.283928 0.8063622
vt 0.2147283 0.8063622
vt 0.7295299 0.3080874
vt 0.7586415 0.327107
vt 0.7560616 0.3033125
vt 0.7604979 0.3526889
vt 0.7223155 0.341565
vt 0.6832352 0.3033125
vt 0.6736134 0.3329157
vt 0.7670878 0.3835228
vt 0.7190514 0.3740611
vt 0.6653924 0.3665346
vt 0.6489467 0.4354603
vt 0.7086883 0.4439383
vt 0.767664 0.4523257
vt 0.6432811 0.4869915
vt 0.7015703 0.4967086
vt 0.7678405 0.5051063
vt 0.7621698 0.5177624
vt 0.700048 0.5098904
vt 0.6454075 0.5007815
vt 0.08566218 0.1828065
vt 0.0809501 0.1423178
vt 0.08493224 0.08628923
vt 0.1473359 0.07886675
vt 0.2114313 0.0915755
vt 0.2185138 0.1420824
vt 0.2088176 0.1979484
vt 0.1476577 0.2011124
vt 0.09536112 0.1926304

vn -0.8938258 -0.15299 0.4215086
vn -0.8362458 -0.3775648 0.3976654
vn -0.9417571 -0.3356249 0.02120079
vn -0.9946141 -0.1001741 0.02660861
vn -0.6593999 -0.4056674 -0.6329501
vn -0.7091925 -0.146487 -0.6896286
vn -0.6965811 0.1688935 -0.6973161
vn -0.9830484 0.1815533 0.02557857
vn -0.6612951 0.3463234 -0.6653938
vn -0.8924475 0.1692137 0.4182155
vn -0.44547 -0.1872304 0.8755006
vn -0.4172798 0.1124656 0.9017922
vn -0.941166 0.3350327 0.04426792
vn -0.8407384 0.3463045 0.4162117
vn -0.412103 0.2495067 0.876309
vn -0.797606 0.4576454 0.392919
vn -0.4012023 0.3204751 0.8580981
vn -0.8508717 0.5249314 0.02154851
vn -0.5965525 0.4849709 -0.6394751
vn -0.5475962 0.8231723 0.1500859
vn -0.3754802 0.6461985 0.6644111
vn -0.539302 0.8401781 -0.05704506
vn -0.3715599 0.679464 -0.6326705
vn -0.04805563 0.9114026 0.4087003
vn 0.2382953 0.2348883 0.9423602
vn 0.5959826 0.379084 0.7078842
vn 0.3425375 0.8806214 0.3273744
vn 0.5976025 0.3730206 0.7097372
vn 0.06692665 0.1728302 0.9826752
vn 0.6439667 0.2913203 0.7074174
vn 0.6938286 0.1053374 0.7123945
vn 0.0153954 0.08679466 0.9961073
vn 0.6613049 -0.1689677 0.7308391
vn -0.0437195 -0.146505 0.9882433
vn -0.05207313 -0.3008916 0.9522356
vn 0.6037613 -0.3996404 0.6897535
vn -0.4235824 -0.3573754 0.8323826
vn -0.1334912 0.9871871 -0.08741705
vn 0.6143333 0.7549769 0.2293566
vn 0.4737266 0.6902924 -0.5468816
vn -0.09556917 0.7715335 -0.6289694
vn 0.675112 0.2455456 -0.6956515
vn -0.0347375 0.2280288 -0.9730345
vn 0.6986135 0.1359874 -0.7024575
vn 0.003661532 0.1337394 -0.9910098
vn 0.009106667 0.1089816 -0.994002
vn 0.7186624 0.02693789 -0.6948372
vn 0.02546121 -0.1121301 -0.9933673
vn 0.7112513 -0.2224795 -0.6668016
vn 0.666104 -0.390193 -0.6356531
vn 0.03683877 -0.3138666 -0.9487522
vn 0.944564 0.2686334 0.1887717
vn 0.9880657 0.1143486 0.1032015
vn 0.998125 0.002947015 0.06113892
vn 0.9845937 -0.1737035 0.02005805
vn 0.9372472 -0.3483319 0.01524696
vn -0.0003959333 -0.9999998 0.0004846737
vn 1.120851E-05 -1 -0.0001760705

usemtl M_StylizedRocks_01
f 28/31/28 26/29/26 25/27/25
f 20/47/20 21/46/21 24/45/24
f 38/49/38 24/45/24 27/50/27
f 27/50/27 39/51/39 38/49/38
f 23/59/23 41/57/41 43/58/43
f 19/60/19 23/59/23 43/58/43
f 27/75/27 26/74/26 39/73/39
f 36/98/58 35/99/58 56/97/58
f 56/97/58 35/99/58 37/100/57
f 56/97/58 37/100/57 3/93/57
f 3/93/57 51/95/58 56/97/58
f 5/94/57 51/95/58 3/93/57
f 50/96/57 56/97/58 51/95/58
f 3/93/57 37/100/57 2/92/57
f 3/3/3 2/2/2 1/1/1
f 1/1/1 4/4/4 3/3/3
f 5/5/5 3/3/3 4/4/4
f 4/4/4 6/6/6 5/5/5
f 7/7/7 6/6/6 4/4/4
f 4/4/4 8/8/8 7/7/7
f 8/8/8 4/4/4 1/1/1
f 1/1/1 10/10/10 8/8/8
f 9/9/9 7/7/7 8/8/8
f 8/8/8 13/13/13 9/9/9
f 10/10/10 1/1/1 11/11/11
f 11/11/11 12/12/12 10/10/10
f 13/13/13 8/8/8 10/10/10
f 10/10/10 14/14/14 13/13/13
f 14/14/14 10/10/10 12/12/12
f 12/12/12 15/15/15 14/14/14
f 16/16/16 14/14/14 15/15/15
f 15/15/15 17/17/17 16/16/16
f 13/13/13 14/14/14 16/16/16
f 16/16/16 18/18/18 13/13/13
f 9/9/9 13/13/13 18/18/18
f 18/18/18 19/19/19 9/9/9
f 20/20/20 16/16/16 17/17/17
f 17/17/17 21/21/21 20/20/20
f 18/18/18 16/16/16 20/20/20
f 20/20/20 22/22/22 18/18/18
f 19/19/19 18/18/18 22/22/22
f 22/22/22 23/23/23 19/19/19
f 24/26/24 21/25/21 17/24/17
f 17/24/17 25/27/25 24/26/24
f 25/27/25 17/24/17 15/28/15
f 15/28/15 29/32/29 25/27/25
f 27/30/27 24/26/24 25/27/25
f 25/27/25 26/29/26 27/30/27
f 28/31/28 25/27/25 29/32/29
f 29/32/29 30/33/30 28/31/28
f 31/34/31 30/33/30 29/32/29
f 29/32/29 32/35/32 31/34/31
f 32/35/32 29/32/29 15/28/15
f 15/28/15 12/36/12 32/35/32
f 33/37/33 31/34/31 32/35/32
f 32/35/32 34/38/34 33/37/33
f 34/38/34 32/35/32 12/36/12
f 12/36/12 11/39/11 34/38/34
f 33/37/33 34/38/34 35/40/35
f 35/40/35 36/41/36 33/37/33
f 37/42/37 35/40/35 34/38/34
f 34/38/34 11/39/11 37/42/37
f 37/42/37 11/39/11 1/43/1
f 1/43/1 2/44/2 37/42/37
f 22/48/22 20/47/20 24/45/24
f 24/45/24 38/49/38 22/48/22
f 38/49/38 39/51/39 40/52/40
f 40/52/40 41/53/41 38/49/38
f 22/48/22 38/49/38 41/53/41
f 41/53/41 23/54/23 22/48/22
f 41/57/41 40/56/40 42/55/42
f 42/55/42 43/58/43 41/57/41
f 43/58/43 42/55/42 44/61/44
f 44/61/44 45/62/45 43/58/43
f 19/60/19 43/58/43 45/62/45
f 45/62/45 9/63/9 19/60/19
f 7/64/7 9/63/9 45/62/45
f 45/62/45 46/65/46 7/64/7
f 46/65/46 45/62/45 44/61/44
f 44/61/44 47/66/47 46/65/46
f 6/67/6 7/64/7 46/65/46
f 46/65/46 48/68/48 6/67/6
f 48/68/48 46/65/46 47/66/47
f 47/66/47 49/69/49 48/68/48
f 48/68/48 49/69/49 50/70/50
f 50/70/50 51/71/51 48/68/48
f 6/67/6 48/68/48 51/71/51
f 51/71/51 5/72/5 6/67/6
f 39/73/39 26/74/26 28/76/28
f 28/76/28 52/77/52 39/73/39
f 40/78/40 39/73/39 52/77/52
f 52/77/52 42/79/42 40/78/40
f 52/77/52 28/76/28 30/80/30
f 30/80/30 53/81/53 52/77/52
f 42/79/42 52/77/52 53/81/53
f 53/81/53 44/82/44 42/79/42
f 47/83/47 44/82/44 53/81/53
f 53/81/53 54/84/54 47/83/47
f 54/84/54 53/81/53 30/80/30
f 30/80/30 31/85/31 54/84/54
f 49/86/49 47/83/47 54/84/54
f 54/84/54 55/87/55 49/86/49
f 55/87/55 54/84/54 31/85/31
f 31/85/31 33/88/33 55/87/55
f 55/87/55 33/88/33 36/89/36
f 36/89/36 56/90/56 55/87/55
f 49/86/49 55/87/55 56/90/56
f 56/90/56 50/91/50 49/86/49

